<?xml version="1.0" standalone="no"?><!DOCTYPE svg PUBLIC "-//W3C//DTD SVG 1.1//EN" "http://www.w3.org/Graphics/SVG/1.1/DTD/svg11.dtd"><svg t="1667971711718" class="icon" viewBox="0 0 1024 1024" version="1.1" xmlns="http://www.w3.org/2000/svg" p-id="7588" xmlns:xlink="http://www.w3.org/1999/xlink" width="128" height="128"><path d="M369.76 404A142.24 142.24 0 1 0 512 261.76a142.4 142.4 0 0 0-142.24 142.24z m220.48 0A78.24 78.24 0 1 1 512 325.76a78.24 78.24 0 0 1 78.24 78.24z" fill="#333333" p-id="7589"></path><path d="M808.16 267.52l-49.28 40.8a320 320 0 0 1-40.8 448C704 657.92 620.64 586.4 512 586.4s-192 71.52-205.92 170.08a320 320 0 0 1 368-520.96l32-55.2a384 384 0 1 0 102.56 87.2zM368 797.44V784c0-76.16 61.92-133.6 144-133.6s144 57.44 144 133.6v13.44a316.8 316.8 0 0 1-288 0z" fill="#333333" p-id="7590"></path></svg>