<?xml version="1.0" standalone="no"?><!DOCTYPE svg PUBLIC "-//W3C//DTD SVG 1.1//EN" "http://www.w3.org/Graphics/SVG/1.1/DTD/svg11.dtd"><svg t="1667973131043" class="icon" viewBox="0 0 1024 1024" version="1.1" xmlns="http://www.w3.org/2000/svg" p-id="8086" xmlns:xlink="http://www.w3.org/1999/xlink" width="128" height="128"><path d="M754.4 931.4H193.6c-58.8 0-106.6-47.8-106.6-106.6V450.2c-13 10-31.6 7.8-41.8-5-10.4-13-8.2-31.8 4.8-42.2L430.6 100.2l0.4-0.2c47-35.2 112.8-35.2 159.8-0.2l0.8 0.6 382.6 302.8c13 10.2 15.2 29.2 5 42.2-6 7.4-14.6 11.4-23.6 11.4-6.6 0-13-2.2-18.6-6.4l-8-6.4v259l-60-60V400.4c0-1.4 0.2-2.8 0.4-4L554.8 147.6c-25.8-19-61.6-19-87.4 0L146.8 402.4v422.4c0 25.8 21 46.6 46.6 46.6h501l60 60z m148.8 7.4c1-0.8 2-1.6 3-2.6l44.4-46.2c0.8-1 1.8-2 2.4-3 16.8-23.8 14.2-56.4-5.8-77.4l-0.2-0.2-193-194.4-9.8-129.2c-1.6-19.6-13.4-36.8-30.6-45.2L624 397.6c-9.8-4.6-21.4-2.6-28.8 5.2l-55.6 57.8c-9.4 9.6-9.4 25 0 34.6l48.6 50.6-20.6 21.4-47.2-49.2c-4.8-5-11.2-7.6-18-7.6s-13.4 2.8-18 7.6l-55.6 58c-7 7.4-9 18.2-4.8 27.4l41.2 93c8 18 25 30.4 44.4 32l123.8 10.2 192.8 194.2c11.4 11.8 26.6 17.8 42 17.8 12.2 0 24.6-4 35-11.8zM502.2 571.6l47.2 49.2c4.8 5 11.2 7.6 18 7.6s13.4-2.8 18-7.6l55.4-57.6c9.4-9.6 9.4-25 0-34.6L592.4 478l26.4-27.4 73.2 35c1.4 0.6 2.2 2.2 2.4 4l10.4 138.4c0.4 6 3 11.6 7.2 15.8l199.2 200.8c3.2 3.4 3.8 8.6 1.6 12.8L871.8 900c-3.2 1.8-7 1.2-9.8-1.6l-0.2-0.2-199.4-201c-4.2-4.2-9.8-6.8-15.8-7.4l-133-11c-1.2-0.2-2.4-1-3-2.4l-34.4-77.6 26-27.2z" p-id="8087"></path></svg>